<?xml version="1.0" encoding="UTF-8" standalone="no"?>
<svg
   xmlns:dc="http://purl.org/dc/elements/1.1/"
   xmlns:cc="http://creativecommons.org/ns#"
   xmlns:rdf="http://www.w3.org/1999/02/22-rdf-syntax-ns#"
   xmlns:svg="http://www.w3.org/2000/svg"
   xmlns="http://www.w3.org/2000/svg"
   viewBox="0 0 745 740"
   height="740"
   width="745"
   xml:space="preserve"
   version="1.1"
   id="svg2"><metadata
     id="metadata8"><rdf:RDF><cc:Work
         rdf:about=""><dc:format>image/svg+xml</dc:format><dc:type
           rdf:resource="http://purl.org/dc/dcmitype/StillImage" /><dc:title></dc:title></cc:Work></rdf:RDF></metadata><defs
     id="defs6"><clipPath
       id="clipPath16"
       clipPathUnits="userSpaceOnUse"><path
         id="path18"
         d="M 7.312,0 596,0 l 0,592 -588.688,0 0,-592 z" /></clipPath></defs><g
     transform="matrix(1.25,0,0,-1.25,0,740)"
     id="g10"><g
       id="g12"><g
         clip-path="url(#clipPath16)"
         id="g14"><g
           transform="translate(588.0056,296.2949)"
           id="g20"><path
             id="path22"
             style="fill:#231f20;fill-opacity:1;fill-rule:nonzero;stroke:none"
             d="m 0,0 c 0,-155.92 -126.397,-282.317 -282.317,-282.317 -155.921,0 -282.319,126.397 -282.319,282.317 0,155.92 126.398,282.318 282.319,282.318 C -126.397,282.318 0,155.92 0,0" /></g><g
           transform="translate(566.7312,296.2949)"
           id="g24"><path
             id="path26"
             style="fill:#ffffff;fill-opacity:1;fill-rule:nonzero;stroke:none"
             d="m 0,0 c 0,-144.17 -116.873,-261.043 -261.043,-261.043 -144.17,0 -261.043,116.873 -261.043,261.043 0,144.17 116.873,261.043 261.043,261.043 C -116.873,261.043 0,144.17 0,0" /></g><g
           transform="translate(546.616,296.2949)"
           id="g28"><path
             id="path30"
             style="fill:#f9ca2e;fill-opacity:1;fill-rule:nonzero;stroke:none"
             d="m 0,0 c 0,-133.061 -107.867,-240.928 -240.929,-240.928 -133.059,0 -240.926,107.867 -240.926,240.928 0,133.061 107.867,240.928 240.926,240.928 C -107.867,240.928 0,133.061 0,0" /></g><g
           transform="translate(416.7869,296.2949)"
           id="g32"><path
             id="path34"
             style="fill:#faa41b;fill-opacity:1;fill-rule:nonzero;stroke:none"
             d="m 0,0 c 0,-61.357 -49.741,-111.099 -111.099,-111.099 -61.358,0 -111.099,49.742 -111.099,111.099 0,61.358 49.741,111.099 111.099,111.099 C -49.741,111.099 0,61.358 0,0" /></g><g
           transform="translate(401.1306,296.2949)"
           id="g36"><path
             id="path38"
             style="fill:#f8981d;fill-opacity:1;fill-rule:nonzero;stroke:none"
             d="m 0,0 c 0,-52.711 -42.731,-95.441 -95.442,-95.441 -52.712,0 -95.443,42.73 -95.443,95.441 0,52.711 42.731,95.442 95.443,95.442 C -42.731,95.442 0,52.711 0,0" /></g><g
           transform="translate(388.5271,296.2949)"
           id="g40"><path
             id="path42"
             style="fill:#ffffff;fill-opacity:1;fill-rule:nonzero;stroke:none"
             d="m 0,0 c 0,-45.608 -37.088,-82.583 -82.839,-82.583 -45.75,0 -82.839,36.975 -82.839,82.583 0,45.609 37.089,82.583 82.839,82.583 C -37.088,82.583 0,45.609 0,0" /></g><g
           transform="translate(308.6355,288.0918)"
           id="g44"><path
             id="path46"
             style="fill:#231f20;fill-opacity:1;fill-rule:nonzero;stroke:none"
             d="M 0,0 C -6.826,-9.415 -12.902,-19.373 -18.152,-29.749 -35.615,9.339 -53.211,48.37 -70.943,87.344 c -14.49,31.849 -29.066,63.653 -43.729,95.413 C -146.51,90.988 -182.743,0.745 -223.187,-87.57 c 0.118,-0.218 -0.095,0.246 0,0 0.121,-0.375 -2.207,-1.068 6.264,-16.85 4.473,-8.333 5.366,-10.503 9.222,-15.932 0.664,-0.934 0.022,0.863 0,0 8.496,-12.962 19.558,-27.248 33.907,-41.344 9.443,-9.279 40.729,-38.637 88.031,-56.034 54.398,-20.005 115.86,-19.913 170.326,-0.203 5.245,2.281 10.434,4.71 14.999,8.03 C 66.374,-139.936 33.188,-69.968 0,0" /></g><g
           transform="translate(368.0926,113.4678)"
           id="g48"><path
             id="path50"
             style="fill:#ffffff;fill-opacity:1;fill-rule:nonzero;stroke:none"
             d="m 0,0 c -3.521,8.119 -5.281,12.178 -5.404,12.45 -13.567,29.924 -37.645,78.044 -47.919,98.469 -4.692,-9.73 -9.385,-19.458 -14.078,-29.188 -1.302,-2.696 -2.603,-5.394 -3.904,-8.091 -31.096,62.103 -61.113,124.746 -90.033,187.892 -23.462,-49.425 -46.712,-100.042 -69.666,-151.851 -9.968,-22.499 -19.73,-44.884 -29.291,-67.149 l 12.162,-14.864 c 18.814,-21.732 52.147,-53.7 100.667,-71.767 28.038,-10.438 54.607,-13.86 63.67,-14.9 19.567,-2.247 39.399,-2.582 59.11,-1.295 12.591,3.078 25.221,5.994 37.552,10.042 1.082,0.354 2.051,0.342 2.885,0.078 0.467,0.11 0.763,0.3 0.921,0.418 C 20.284,-47.049 14.889,-34.329 0,0" /></g><g
           transform="translate(137.6995,126.835)"
           id="g52"><path
             id="path54"
             style="fill:#231f20;fill-opacity:1;fill-rule:nonzero;stroke:none"
             d="M 0,0 C 20.622,41.559 41.243,83.115 61.865,124.674 95.192,62.864 118.592,16.996 122.22,6.945 c 2.2,-6.095 1.934,-11.869 1.934,-11.869 -0.367,-5.203 -2.564,-10.077 -4.727,-14.821 -6.252,-13.715 -12.503,-27.428 -18.755,-41.141 -38.234,11.34 -73.428,32.769 -101.057,61.528" /></g><g
           transform="translate(377.6013,68.2227)"
           id="g56"><path
             id="path58"
             style="fill:#231f20;fill-opacity:1;fill-rule:nonzero;stroke:none"
             d="m 0,0 c 0.507,2.481 -1.411,5.305 -2.06,6.278 -4.556,6.84 -8.215,14.211 -11.809,21.625 -0.742,1.53 -4.435,8.236 -11.421,21.874 -11.488,22.425 -23.459,46.456 -28.748,57.104 L -65.904,79.054 -66.385,79.34 C -51.244,50.469 -36.104,21.598 -20.962,-7.273 -14.026,-4.671 -6.575,-3.277 0,0" /></g><g
           transform="translate(186.1804,270.6904)"
           id="g60"><path
             id="path62"
             style="fill:#7ba8d9;fill-opacity:1;fill-rule:nonzero;stroke:none"
             d="m 0,0 c -4.581,-1.43 -29.877,38.82 -32.572,88.983 -0.825,15.361 -0.895,57.054 25.676,98.651 5.27,8.25 19.606,29.047 45.624,47.044 8.568,5.927 41.261,27.36 88.818,29.951 34.171,1.861 59.455,-6.908 76.46,-12.805 37.624,-13.049 64.878,-33.387 82.014,-49.119 0,0 13.912,-12.523 25.002,-26.832 28.733,-37.067 71.361,-129.994 36.047,-230.414 -5.723,-16.276 -38.558,-105.045 -133.695,-144.44 -70.02,-28.995 -133.112,-13.943 -154.075,-8.309 47.018,10.776 82.43,26.851 105.71,39.379 35.884,19.314 52.317,35.252 59.095,42.26 5.954,6.152 19.148,20.596 31.334,42.25 3.157,5.608 13.59,23.401 20.499,51.051 7.323,29.304 12.735,59.638 9.214,89.637 -5.111,43.566 -29.963,84.429 -66.294,109.008 -6.445,4.363 -61.304,40.34 -125.845,20.984 C 80.322,183.473 53.716,173.467 30.942,148.445 2.441,117.128 -2.573,81.504 -4.193,68.713 -9.297,28.426 3.695,1.154 0,0" /></g></g></g></g></svg>